<?xml version="1.0" encoding="utf-8"?>
<!-- Generator: Adobe Illustrator 16.0.0, SVG Export Plug-In . SVG Version: 6.00 Build 0)  -->
<!DOCTYPE svg PUBLIC "-//W3C//DTD SVG 1.1//EN" "http://www.w3.org/Graphics/SVG/1.1/DTD/svg11.dtd">
<svg version="1.1" xmlns="http://www.w3.org/2000/svg" xmlns:xlink="http://www.w3.org/1999/xlink" x="0px" y="0px" width="1024px"
	 height="1024px" viewBox="0 0 1024 1024" enable-background="new 0 0 1024 1024" xml:space="preserve">
<g id="Layer_3">
	<g>
		<path fill="#FFFFFF" d="M140.918,989.369v25.603c-7.045,5.356-17.464,9.028-26.99,9.028c-20.54,0-36.516-15.38-36.516-35.226
			s16.174-35.027,37.21-35.027c9.923,0,19.846,3.771,26.692,9.725l-6.648,8.633c-5.358-4.961-12.801-7.938-20.044-7.938
			c-14.189,0-25.303,10.815-25.303,24.608c0,13.892,11.212,24.707,25.402,24.707c5.16,0,11.014-1.786,15.976-4.763v-19.351
			L140.918,989.369L140.918,989.369z"/>
		<path fill="#FFFFFF" d="M188.849,1002.468c-0.992,0.099-2.083,0.099-3.175,0.099h-16.472v20.938h-11.709v-69.46h28.181
			c17.762,0,27.982,8.634,27.982,23.717c0,11.112-5.16,18.952-14.388,22.523l15.579,23.22H201.55L188.849,1002.468z
			 M185.673,992.049c10.717,0,16.869-4.564,16.869-13.991c0-9.129-6.152-13.495-16.869-13.495h-16.472v27.486H185.673z"/>
		<path fill="#FFFFFF" d="M239.062,1007.826l-6.648,15.678h-12.205l30.662-69.46h12.006l30.364,69.46h-12.502l-6.648-15.678H239.062
			z M256.525,966.547l-13.098,30.859h26.196L256.525,966.547z"/>
		<path fill="#FFFFFF" d="M330.156,954.044c17.464,0,27.485,8.634,27.485,23.717c0,15.678-10.021,24.807-27.485,24.807H314.18
			v20.938h-11.708v-69.461L330.156,954.044L330.156,954.044z M314.181,992.049h15.479c10.717,0,16.77-4.564,16.77-13.991
			c0-9.129-6.053-13.495-16.77-13.495h-15.479V992.049z"/>
		<path fill="#FFFFFF" d="M417.777,1023.504v-28.775h-36.813v28.775h-11.709v-69.46h11.709v30.166h36.813v-30.166h11.709v69.46
			H417.777z"/>
		<path fill="#FFFFFF" d="M447.747,1023.504v-69.46h11.709v69.46H447.747z"/>
		<path fill="#FFFFFF" d="M534.869,964.463l-6.846,8.534c-5.062-5.458-12.306-8.831-19.351-8.831
			c-13.892,0-24.807,10.717-24.807,24.41s10.915,24.509,24.807,24.509c6.946,0,14.09-3.175,19.351-8.235l6.944,7.739
			c-7.045,6.946-17.065,11.411-26.891,11.411c-20.342,0-36.119-15.38-36.119-35.324c0-19.746,15.976-34.929,36.516-34.929
			C518.299,953.747,528.123,957.815,534.869,964.463z"/>
		<path fill="#FFFFFF" d="M600.959,954.044c20.838,0,35.922,14.587,35.922,34.73c0,20.044-15.184,34.729-36.219,34.729H572.48
			v-69.46L600.959,954.044L600.959,954.044z M584.189,1012.985h17.067c13.494,0,23.814-10.021,23.814-24.112
			c0-14.188-10.617-24.311-24.312-24.311h-16.571L584.189,1012.985L584.189,1012.985z"/>
		<path fill="#FFFFFF" d="M661.096,964.563v18.754h33.937v10.519h-33.937v19.15h39.097v10.519h-50.806v-69.46H699v10.52
			L661.096,964.563L661.096,964.563z"/>
		<path fill="#FFFFFF" d="M761.617,960.692l-4.863,10.32c-7.541-4.564-15.082-6.45-20.342-6.45c-6.846,0-11.313,2.58-11.313,7.244
			c0,15.182,37.511,7.045,37.41,32.05c0,12.404-10.916,20.044-26.196,20.044c-10.914,0-21.234-4.465-28.38-11.014l5.062-10.121
			c7.145,6.549,16.076,10.121,23.518,10.121c8.138,0,12.998-3.076,12.998-8.436c0-15.479-37.508-6.847-37.508-31.555
			c0-11.907,10.221-19.35,25.303-19.35C746.336,953.547,755.166,956.426,761.617,960.692z"/>
		<path fill="#FFFFFF" d="M776.205,1023.504v-69.46h11.709v69.46H776.205z"/>
		<path fill="#FFFFFF" d="M863.924,989.369v25.603c-7.045,5.356-17.465,9.028-26.99,9.028c-20.539,0-36.516-15.38-36.516-35.226
			s16.174-35.027,37.211-35.027c9.922,0,19.846,3.771,26.691,9.725l-6.648,8.633c-5.357-4.961-12.799-7.938-20.043-7.938
			c-14.189,0-25.303,10.815-25.303,24.608c0,13.892,11.213,24.707,25.402,24.707c5.159,0,11.014-1.786,15.975-4.763v-19.351
			L863.924,989.369L863.924,989.369z"/>
		<path fill="#FFFFFF" d="M929.219,1023.504l-37.012-49.813v49.813h-11.709v-69.46h11.512l37.209,49.912v-49.912h11.512v69.46
			H929.219z"/>
	</g>
</g>
<g id="Layer_4">
	<g>
		<path fill-rule="evenodd" clip-rule="evenodd" fill="#FFFFFF" d="M751.289,431.463c-16.986,17.053-36.46,36.18-56.76,56.114
			c-17.229,16.92-35.497,34.864-53.46,52.747c18.452,6.829,31.607,24.581,31.607,45.408c0,26.733-21.672,48.405-48.405,48.405
			c-20.477,0-37.97-12.72-45.044-30.684c-12.831,13.605-22.847,24.736-30.66,33.807c8.166,8.666,13.18,20.334,13.18,33.182
			c0,26.733-21.672,48.405-48.405,48.405c-6.54,0-12.771-1.304-18.461-3.653c-2.17,2.304-4.585,4.591-7.262,6.855
			c-11.644,9.852-22.959,14.848-33.63,14.848c-0.002,0-0.004,0-0.007,0c-0.831-0.001-1.669-0.03-2.491-0.09
			c-8.186-0.584-16.39-2.71-24.313-5.772c-0.512,7.315-1.812,14.688-3.953,22.021c-2.945,10.083-6.933,19.443-11.932,28.084
			c15.165,4.206,30.864,7.058,47.136,8.443c1.372,0.116,2.705,0.679,4.055,1.032c10.753,0,21.506,0,32.26,0
			c7.214-1.022,14.439-1.966,21.64-3.08c38.13-5.891,72.954-20.244,104.73-41.873c63.778-43.411,106.104-102.509,126.588-176.789
			c4.817-17.468,6.378-35.83,9.45-53.78c0.296-1.723,0.697-3.429,1.051-5.142c0-11.47,0-22.94,0-34.411
			c-1.452-10.583-2.475-21.248-4.438-31.736C752.991,439.674,752.168,435.559,751.289,431.463z"/>
		<path fill-rule="evenodd" clip-rule="evenodd" fill="#FFFFFF" d="M205.292,589.17c10.556,24.055,23.043,46.622,37.675,67.525
			c17.289-20.593,41.639-33.705,68.884-36.299c2.53-5.639,6.104-10.704,10.483-14.95c0.012-0.442,0.021-0.884,0.042-1.326
			c0.187-3.889,0.755-15.705,16.744-33.686c7.389-8.31,14.433-13.924,21.5-17.051c6.528-10.108,17.925-16.09,30.837-16.09
			c0.29,0,0.583,0.003,0.88,0.009c0.26-0.011,8.239-0.424,29.653-15.299c15.562-10.811,34.735-26.896,56.99-47.809
			c2.317-2.177,4.646-4.389,6.983-6.624c-20.714-9.308-35.147-30.104-35.147-54.284c0-32.86,26.639-59.499,59.499-59.499
			c23.713,0,44.181,13.875,53.741,33.946c15.115-16.155,29.955-32.275,44.136-47.679c7.342-7.976,14.453-15.699,21.283-23.081
			c-15.711-1.405-31.541-1.341-47.417-0.812c-23.604,0.788-47.231,1.351-70.845,1.25c-9.766-0.041-19.654-1.407-29.258-3.321
			c-29.879-5.954-46.98-24.758-52.85-54.29c-4.056-20.41-2.761-40.937-1.719-61.513c1.03-20.334,1.857-40.709,1.71-61.06
			c-0.088-12.223-5.665-22-18.231-26.23c-4.302,0-8.603,0-12.905,0c-11.369,3.017-22.978,5.339-34.067,9.167
			c-67.115,23.166-115.342,68.398-149.311,129.686c-21.945,39.595-34.777,82.242-40.263,127.128
			c-1.167,9.545-2.175,19.108-3.257,28.663c0,12.545,0,25.091,0,37.637c1.014,9.917,1.935,19.845,3.058,29.75
			C178.688,513.303,188.993,552.03,205.292,589.17z M279.475,285.966c26.734,0,48.406,21.672,48.406,48.406
			c0,26.733-21.672,48.405-48.406,48.405s-48.406-21.672-48.406-48.405C231.069,307.638,252.741,285.966,279.475,285.966z
			 M271.313,448.583c26.734,0,48.406,21.672,48.406,48.405c0,26.734-21.672,48.406-48.406,48.406s-48.406-21.672-48.406-48.406
			C222.908,470.255,244.58,448.583,271.313,448.583z"/>
	</g>
	<path fill="#FFFFFF" d="M922.566,169.013c-5.602,10.612-81.824,127.095-174.393,222.497
		c-78.298,80.692-248.007,236.484-256.519,275.945c-7.852,36.368-136.472-100.625-99.912-99.904
		c55.189,1.086,196.018-162.091,276.588-247.909c66.439-70.77,164.97-133.468,217.796-177.093
		C901.89,129.53,932.047,151.045,922.566,169.013z M453.66,706.632c7.878,0.566,30.328-20.054,23.344-23.341
		c-35.324-16.65-97.247-63.01-101.062-101.063c-0.787-7.841-22.964,15.387-23.346,23.341
		C350.817,642.706,416.904,704.009,453.66,706.632z M167.913,824.124c26.406,2.83,52.869,3.673,79.385,2.08
		c29.827-1.785,59.133-6.206,86.913-17.938c29.366-12.399,50.866-32.507,59.973-63.688c10.7-36.651-8.528-77.305-47.673-90.347
		c-40.493-13.488-81.063,7.537-94.828,47.731c-0.971,2.835-2.441,5.541-3.982,8.128c-11.179,18.75-27.209,32.081-46.674,41.541
		c-1.371,0.667-2.663,1.497-3.991,2.253c0.116,0.697,0.232,1.396,0.349,2.095c9.527,0.102,19.054,0.206,28.872,0.313
		c-11.015,21.774-30.552,27.878-53.545,27.804c18.374,4.05,36.604,6.74,56.122,2.021c-15.393,25.446-37.611,36.282-65.662,37.237
		C164.752,823.618,166.323,823.953,167.913,824.124z"/>
</g>
</svg>
