<?xml version="1.0" encoding="utf-8"?>
<!-- Generator: Adobe Illustrator 16.0.0, SVG Export Plug-In . SVG Version: 6.00 Build 0)  -->
<!DOCTYPE svg PUBLIC "-//W3C//DTD SVG 1.1//EN" "http://www.w3.org/Graphics/SVG/1.1/DTD/svg11.dtd">
<svg version="1.1" xmlns="http://www.w3.org/2000/svg" xmlns:xlink="http://www.w3.org/1999/xlink" x="0px" y="0px" width="1024px"
	 height="1024px" viewBox="0 0 1024 1024" enable-background="new 0 0 1024 1024" xml:space="preserve">
<g id="Layer_3">
	<g>
		<path fill="#FFFFFF" d="M309.514,994.706c0,18.172-11.42,29.294-30.188,29.294c-18.769,0-30.288-11.122-30.288-29.294v-40.715
			h11.718v40.715c0,11.718,7.249,18.769,18.669,18.769c11.321,0,18.371-6.952,18.371-18.769v-40.715h11.718V994.706z"/>
		<path fill="#FFFFFF" d="M326.292,1023.504v-69.513h11.718v69.513H326.292z"/>
		<path fill="#FFFFFF" d="M410.399,953.991c20.854,0,35.948,14.598,35.948,34.756c0,20.06-15.194,34.757-36.246,34.757h-28.203
			v-69.513H410.399z M393.617,1012.978h17.08c13.505,0,23.833-10.029,23.833-24.131c0-14.2-10.625-24.329-24.33-24.329h-16.583
			V1012.978z"/>
		<path fill="#FFFFFF" d="M470.574,964.518v18.769h33.962v10.525h-33.962v19.166h39.125v10.526h-50.844v-69.513h49.652v10.526
			H470.574z"/>
		<path fill="#FFFFFF" d="M571.165,960.645l-4.866,10.327c-7.547-4.567-15.094-6.454-20.357-6.454c-6.852,0-11.32,2.581-11.32,7.249
			c0,15.193,37.537,7.051,37.438,32.075c0,12.413-10.924,20.06-26.217,20.06c-10.923,0-21.25-4.469-28.4-11.023l5.064-10.129
			c7.15,6.555,16.088,10.129,23.535,10.129c8.143,0,13.009-3.078,13.009-8.44c0-15.491-37.537-6.852-37.537-31.579
			c0-11.916,10.229-19.364,25.323-19.364C555.872,953.494,564.71,956.374,571.165,960.645z"/>
		<path fill="#FFFFFF" d="M585.76,1023.504v-69.513h11.718v69.513H585.76z"/>
		<path fill="#FFFFFF" d="M673.541,989.343v25.621c-7.05,5.362-17.478,9.036-27.011,9.036c-20.556,0-36.544-15.392-36.544-35.253
			c0-19.86,16.187-35.054,37.239-35.054c9.931,0,19.861,3.773,26.713,9.731l-6.653,8.64c-5.362-4.966-12.811-7.944-20.06-7.944
			c-14.2,0-25.322,10.824-25.322,24.627c0,13.903,11.222,24.728,25.422,24.728c5.164,0,11.022-1.788,15.988-4.767v-19.365H673.541z"
			/>
		<path fill="#FFFFFF" d="M738.88,1023.504l-37.041-49.851v49.851h-11.718v-69.513h11.52l37.239,49.95v-49.95h11.52v69.513H738.88z"
			/>
	</g>
</g>
<g id="Layer_4">
	<path fill-rule="evenodd" clip-rule="evenodd" fill="#FFFFFF" d="M410.059,706.01c3.083-6.733,5.103-14.272,9.475-20.025
		c8.57-11.279,20.436-15.862,34.865-13.188c20.074,3.722,39.294,9.936,57.731,18.652c1.452,0.687,2.936,1.307,4.972,2.21
		c0-2.662-0.001-4.637,0-6.612c0-66.471-0.024-132.941,0.021-199.413c0.012-16.857,12.343-30.73,29.342-33.313
		c15.906-2.416,32.159,7.714,36.855,23.353c1.174,3.91,1.551,8.175,1.602,12.285c0.185,14.777,0.073,29.559,0.073,44.521
		c18.639-8.631,36.177-3.982,47.38,15.917c9.1-5.715,18.834-7.975,29.4-4.662c10.541,3.305,17.613,10.335,21.443,19.601
		c7.221-1.484,14.045-3.946,20.917-4.091c17.627-0.371,32.704,14.632,32.759,32.249c0.156,51.478,0.535,102.961-0.108,154.431
		c-0.636,50.816-40.224,95.674-90.524,104.078c-3.75,0.626-7.488,1.323-11.231,1.987c-5.666,0-11.332,0-16.998,0
		c-1.617-0.332-3.22-0.784-4.853-0.979c-32.61-3.9-58.974-18.369-78.154-45.483c-23.337-32.99-54.643-53.92-94.545-61.649
		c-15.555-3.013-25.431-12.28-29.417-27.705c-0.195-0.757-0.664-1.444-1.005-2.165C410.059,712.675,410.059,709.343,410.059,706.01z
		 M909.698,107.498H133.365c-19.514,0-35.333,15.819-35.333,35.333v494.667c0,19.515,15.819,35.333,35.333,35.333h257.131
		c1.818-3.872,4.085-7.965,7.147-11.994c12.631-16.624,30.739-25.78,50.987-25.78c4.322,0,8.774,0.419,13.232,1.246
		c9.191,1.704,18.283,3.893,27.233,6.553l-0.001-14.171c-0.005-49.355-0.01-98.712,0.024-148.069
		c0.022-31.652,23.084-58.127,54.836-62.951c3.04-0.462,6.146-0.696,9.229-0.696c11.585,0,22.674,3.213,32.256,8.864
		c-10.326-21.322-16.119-45.249-16.119-70.529c0-89.479,72.537-162.017,162.016-162.017c89.48,0,162.018,72.537,162.018,162.017
		s-72.537,162.017-162.018,162.017c-45.323,0-86.292-18.619-115.696-48.616c0.789,4.28,1.213,8.87,1.275,13.886
		c0.05,4.027,0.079,8.069,0.094,12.103c9.787,2.114,18.858,6.668,26.748,13.366c9.593-1.619,19.46-0.935,28.988,2.052
		c9.701,3.042,18.237,8.073,25.231,14.749c2.393-0.326,4.905-0.551,7.523-0.605c16.889-0.363,32.96,6.233,45.092,18.438
		c11.749,11.816,18.247,27.341,18.298,43.712c0.027,9.198,0.063,18.396,0.098,27.593c0.074,19.37,0.146,39.053,0.152,58.834h140.558
		c19.514,0,35.334-15.818,35.334-35.333V142.832C945.032,123.317,929.212,107.498,909.698,107.498z M453.573,504.115H163.84
		c-11.709,0-21.2-9.492-21.2-21.2c0-11.709,9.491-21.2,21.2-21.2h289.733c11.709,0,21.2,9.491,21.2,21.2
		C474.772,494.623,465.282,504.115,453.573,504.115z M453.573,417.843H163.84c-11.709,0-21.2-9.492-21.2-21.2s9.491-21.2,21.2-21.2
		h289.733c11.709,0,21.2,9.492,21.2,21.2S465.282,417.843,453.573,417.843z M453.573,331.57H163.84c-11.709,0-21.2-9.492-21.2-21.2
		s9.491-21.2,21.2-21.2h289.733c11.709,0,21.2,9.492,21.2,21.2S465.282,331.57,453.573,331.57z M453.573,245.298H163.84
		c-11.709,0-21.2-9.491-21.2-21.2s9.491-21.2,21.2-21.2h289.733c11.709,0,21.2,9.492,21.2,21.2S465.282,245.298,453.573,245.298z"/>
</g>
</svg>
