<?xml version="1.0" encoding="utf-8"?>
<!-- Generator: Adobe Illustrator 16.0.0, SVG Export Plug-In . SVG Version: 6.00 Build 0)  -->
<!DOCTYPE svg PUBLIC "-//W3C//DTD SVG 1.1//EN" "http://www.w3.org/Graphics/SVG/1.1/DTD/svg11.dtd">
<svg version="1.1" id="Layer_3" xmlns="http://www.w3.org/2000/svg" xmlns:xlink="http://www.w3.org/1999/xlink" x="0px" y="0px"
	 width="1024px" height="1024px" viewBox="0 0 1024 1024" enable-background="new 0 0 1024 1024" xml:space="preserve">
<g>
	<path fill="#FFFFFF" d="M921.001,116h-818C91.955,116,83,124.958,83,136.004v530C83,677.05,91.955,686,103.001,686h51.352
		c16.664-33.13,49.16-53.859,86.178-53.859c3.406,0,6.815,0.182,10.217,0.536c-0.907-2.86-1.645-5.76-2.193-8.677H141V176h589.326
		c20.616-15.226,39.918-29.566,54.774-41.838c7.396-6.106,16.529-9.333,26.416-9.333c17.153,0,34.751,10.069,43.787,25.055
		c5.009,8.304,6.98,17.354,5.916,26.115H883v448H473.328c-35.789,39.612-40.8,51.584-41.481,53.877
		c-0.642,2.924-1.621,5.639-2.882,8.123H436v52h-97.756c-0.58,5.936-1.706,11.904-3.438,17.838c-0.016,0.055-0.032,0.107-0.05,0.162
		H708v-18H588v-52h333.001c11.046,0,19.999-8.95,19.999-19.996v-530C941,124.958,932.047,116,921.001,116z"/>
	<path fill="#FFFFFF" d="M836.203,178.527c-5.555,10.523-81.139,126.03-172.932,220.632
		c-77.641,80.016-245.928,234.503-254.369,273.633c-7.786,36.063-135.328-99.781-99.075-99.067
		c54.727,1.077,194.376-160.733,274.271-245.832c65.883-70.176,163.588-132.349,215.97-175.609
		C815.699,139.375,845.604,160.71,836.203,178.527z M371.226,711.641c7.812,0.561,30.073-19.886,23.148-23.146
		c-35.028-16.511-96.432-62.481-100.215-100.217c-0.78-7.774-22.771,15.258-23.15,23.146
		C269.245,648.25,334.778,709.039,371.226,711.641z M87.873,828.148c26.184,2.806,52.426,3.642,78.72,2.063
		c29.577-1.771,58.637-6.154,86.185-17.787c29.12-12.296,50.44-32.235,59.47-63.155c10.61-36.343-8.456-76.656-47.273-89.588
		c-40.153-13.376-80.383,7.473-94.033,47.331c-0.963,2.811-2.421,5.494-3.949,8.059c-11.085,18.593-26.981,31.813-46.283,41.194
		c-1.359,0.661-2.64,1.484-3.957,2.233c0.115,0.691,0.23,1.384,0.346,2.077c9.447,0.102,18.894,0.205,28.63,0.311
		c-10.923,21.592-30.296,27.644-53.096,27.57c18.22,4.016,36.297,6.684,55.651,2.005c-15.264,25.232-37.295,35.978-65.111,36.925
		C84.739,827.646,86.297,827.979,87.873,828.148z"/>
</g>
<g>
	<path fill="#FFFFFF" d="M259.782,1024l-16.484-54.22L226.614,1024H214.5l-23.039-69.513h12.611l16.882,56.504l16.782-56.405
		l11.52-0.099l16.882,56.504l16.782-56.504h12.115L271.798,1024H259.782z"/>
	<path fill="#FFFFFF" d="M314.891,965.014v18.769h33.963v10.525h-33.963v19.166h39.126V1024h-50.844v-69.513h49.652v10.526H314.891z
		"/>
	<path fill="#FFFFFF" d="M398.502,954.487c14.399,0,23.337,6.554,23.337,17.378c0,7.845-4.667,13.704-12.215,15.491
		c9.335,1.589,14.896,8.242,14.896,17.577c0,11.916-9.632,19.066-25.322,19.066h-30.884v-69.513H398.502z M380.031,983.285h17.875
		c7.448,0,11.917-3.476,11.917-9.334c0-5.859-4.469-9.037-11.917-9.037h-17.875V983.285z M380.031,1013.573h17.875
		c9.136,0,14.598-3.575,14.598-10.129c0-6.157-5.462-9.831-14.598-9.831h-17.875V1013.573z"/>
	<path fill="#FFFFFF" d="M492.538,954.487c20.854,0,35.947,14.598,35.947,34.756c0,20.06-15.193,34.757-36.245,34.757h-28.203
		v-69.513H492.538z M475.755,1013.474h17.081c13.505,0,23.833-10.029,23.833-24.131c0-14.2-10.626-24.329-24.33-24.329h-16.584
		V1013.474z"/>
	<path fill="#FFFFFF" d="M552.712,965.014v18.769h33.962v10.525h-33.962v19.166h39.126V1024h-50.844v-69.513h49.652v10.526H552.712z
		"/>
	<path fill="#FFFFFF" d="M653.304,961.141l-4.866,10.327c-7.547-4.567-15.094-6.454-20.357-6.454c-6.852,0-11.32,2.582-11.32,7.249
		c0,15.193,37.537,7.051,37.438,32.075c0,12.413-10.924,20.06-26.217,20.06c-10.923,0-21.251-4.469-28.4-11.023l5.064-10.129
		c7.149,6.555,16.087,10.129,23.535,10.129c8.143,0,13.009-3.078,13.009-8.44c0-15.491-37.537-6.852-37.537-31.579
		c0-11.916,10.229-19.364,25.322-19.364C638.011,953.99,646.849,956.87,653.304,961.141z"/>
	<path fill="#FFFFFF" d="M667.897,1024v-69.513h11.718V1024H667.897z"/>
	<path fill="#FFFFFF" d="M755.68,989.84v25.62c-7.05,5.362-17.478,9.036-27.011,9.036c-20.556,0-36.544-15.392-36.544-35.253
		c0-19.86,16.187-35.054,37.239-35.054c9.931,0,19.861,3.773,26.713,9.731l-6.653,8.64c-5.362-4.965-12.811-7.944-20.06-7.944
		c-14.2,0-25.322,10.824-25.322,24.627c0,13.903,11.222,24.728,25.422,24.728c5.164,0,11.022-1.788,15.988-4.767V989.84H755.68z"/>
	<path fill="#FFFFFF" d="M821.02,1024l-37.041-49.851V1024h-11.718v-69.513h11.52l37.239,49.95v-49.95h11.52V1024H821.02z"/>
</g>
</svg>
