<?xml version="1.0" encoding="utf-8"?>
<!-- Generator: Adobe Illustrator 16.0.0, SVG Export Plug-In . SVG Version: 6.00 Build 0)  -->
<!DOCTYPE svg PUBLIC "-//W3C//DTD SVG 1.1//EN" "http://www.w3.org/Graphics/SVG/1.1/DTD/svg11.dtd">
<svg version="1.1" id="Layer_1" xmlns="http://www.w3.org/2000/svg" xmlns:xlink="http://www.w3.org/1999/xlink" x="0px" y="0px"
	 width="2176px" height="1024px" viewBox="0 0 2176 1024" enable-background="new 0 0 2176 1024" xml:space="preserve">
<path fill-rule="evenodd" clip-rule="evenodd" fill="none" stroke="#666666" stroke-width="40" stroke-miterlimit="10" d="
	M1633.375,476.815c0,0-230.373,298.529-514.553,298.529c-284.179,0-514.552-298.529-514.552-298.529
	s230.373-298.529,514.552-298.529C1403.002,178.286,1633.375,476.815,1633.375,476.815z"/>
<path fill-rule="evenodd" clip-rule="evenodd" fill="#666666" d="M1120.323,218.793c-136.703,0-247.521,110.819-247.521,247.521
	c0,136.702,110.819,247.522,247.521,247.522c136.702,0,247.521-110.82,247.521-247.522
	C1367.845,329.613,1257.025,218.793,1120.323,218.793z M1120.323,645.443c-98.93,0-179.128-80.199-179.128-179.128
	s80.198-179.128,179.128-179.128s179.128,80.199,179.128,179.128S1219.253,645.443,1120.323,645.443z"/>
<g>
	<path fill="none" d="M1140.131,381.645c0,29.828,24.18,54.008,54.008,54.008c20.418,0,38.185-11.333,47.365-28.05
		c-15.863-32.681-44.558-57.972-79.534-69.34C1148.72,348.105,1140.131,363.871,1140.131,381.645z"/>
	<path fill="#666666" d="M1241.504,407.603c-9.181,16.716-26.947,28.05-47.365,28.05c-29.828,0-54.008-24.18-54.008-54.008
		c0-17.774,8.589-33.54,21.839-43.382c-13.115-4.263-27.109-6.576-41.646-6.576c-74.354,0-134.628,60.275-134.628,134.628
		s60.274,134.628,134.628,134.628c74.353,0,134.628-60.275,134.628-134.628C1254.951,445.266,1250.117,425.347,1241.504,407.603z"/>
</g>
<g>
	<path fill="#666666" d="M440.029,964.914l-6.852,8.54c-5.064-5.462-12.313-8.838-19.364-8.838
		c-13.902,0-24.826,10.725-24.826,24.429s10.924,24.528,24.826,24.528c6.951,0,14.101-3.178,19.364-8.242l6.951,7.745
		c-7.051,6.951-17.08,11.42-26.911,11.42c-20.357,0-36.147-15.392-36.147-35.352c0-19.762,15.988-34.955,36.544-34.955
		C423.445,954.189,433.276,958.261,440.029,964.914z"/>
	<path fill="#666666" d="M518.476,989.243c0,19.861-16.087,35.253-36.842,35.253c-20.754,0-36.842-15.392-36.842-35.253
		c0-19.96,16.088-35.054,36.842-35.054C502.389,954.189,518.476,969.383,518.476,989.243z M456.709,989.243
		c0,13.804,11.42,24.728,25.024,24.728s24.727-10.924,24.727-24.728c0-13.803-11.122-24.527-24.727-24.527
		C468.029,964.716,456.709,975.44,456.709,989.243z"/>
	<path fill="#666666" d="M593.646,1024l-0.1-51.937l-21.946,44.688h-7.646l-21.946-44.688V1024h-11.023v-69.513h13.903
		l22.938,46.176l22.84-46.176h13.804V1024H593.646z"/>
	<path fill="#666666" d="M650.542,954.487c17.478,0,27.508,8.64,27.508,23.733c0,15.69-10.03,24.826-27.508,24.826h-15.988V1024
		h-11.718v-69.513H650.542z M634.554,992.521h15.492c10.725,0,16.782-4.568,16.782-14.002c0-9.136-6.058-13.505-16.782-13.505
		h-15.492V992.521z"/>
	<path fill="#666666" d="M731.472,1013.374V1024h-41.808v-69.513h11.718v58.887H731.472z"/>
	<path fill="#666666" d="M754.407,965.014v18.769h33.963v10.525h-33.963v19.166h39.126V1024h-50.844v-69.513h49.652v10.526H754.407z
		"/>
	<path fill="#666666" d="M833.251,965.014V1024h-11.718v-58.986h-21.946v-10.526h55.71v10.526H833.251z"/>
	<path fill="#666666" d="M877.041,965.014v18.769h33.962v10.525h-33.962v19.166h39.126V1024h-50.844v-69.513h49.652v10.526H877.041z
		"/>
	<path fill="#666666" d="M986.271,954.487c14.399,0,23.337,6.554,23.337,17.378c0,7.845-4.667,13.704-12.215,15.491
		c9.335,1.589,14.896,8.242,14.896,17.577c0,11.916-9.632,19.066-25.322,19.066h-30.884v-69.513H986.271z M967.8,983.285h17.875
		c7.448,0,11.917-3.476,11.917-9.334c0-5.859-4.469-9.037-11.917-9.037H967.8V983.285z M967.8,1013.573h17.875
		c9.136,0,14.598-3.575,14.598-10.129c0-6.157-5.462-9.831-14.598-9.831H967.8V1013.573z"/>
	<path fill="#666666" d="M1057.567,1002.947c-0.992,0.1-2.085,0.1-3.178,0.1h-16.484V1024h-11.718v-69.513h28.202
		c17.776,0,28.004,8.64,28.004,23.733c0,11.122-5.163,18.967-14.398,22.542l15.591,23.237h-13.308L1057.567,1002.947z
		 M1054.39,992.521c10.726,0,16.882-4.568,16.882-14.002c0-9.136-6.156-13.505-16.882-13.505h-16.484v27.507H1054.39z"/>
	<path fill="#666666" d="M1107.812,1008.31l-6.653,15.69h-12.214l30.685-69.513h12.016l30.388,69.513h-12.513l-6.653-15.69H1107.812
		z M1125.289,966.999l-13.107,30.884h26.216L1125.289,966.999z"/>
	<path fill="#666666" d="M1220.022,1024l-37.041-49.851V1024h-11.718v-69.513h11.52l37.239,49.95v-49.95h11.52V1024H1220.022z"/>
	<path fill="#666666" d="M1278.409,954.487c20.854,0,35.947,14.598,35.947,34.756c0,20.06-15.193,34.757-36.246,34.757h-28.202
		v-69.513H1278.409z M1261.626,1013.474h17.081c13.505,0,23.833-10.029,23.833-24.131c0-14.2-10.626-24.329-24.33-24.329h-16.584
		V1013.474z"/>
	<path fill="#666666" d="M1352.484,1024v-69.513h11.718V1024H1352.484z"/>
	<path fill="#666666" d="M1410.972,954.487c20.854,0,35.947,14.598,35.947,34.756c0,20.06-15.193,34.757-36.246,34.757h-28.202
		v-69.513H1410.972z M1394.188,1013.474h17.081c13.505,0,23.833-10.029,23.833-24.131c0-14.2-10.626-24.329-24.33-24.329h-16.584
		V1013.474z"/>
	<path fill="#666666" d="M1471.146,965.014v18.769h33.963v10.525h-33.963v19.166h39.126V1024h-50.844v-69.513h49.652v10.526
		H1471.146z"/>
	<path fill="#666666" d="M1573.327,1024l-37.041-49.851V1024h-11.718v-69.513h11.52l37.239,49.95v-49.95h11.52V1024H1573.327z"/>
	<path fill="#666666" d="M1628.635,965.014V1024h-11.718v-58.986h-21.946v-10.526h55.71v10.526H1628.635z"/>
	<path fill="#666666" d="M1660.707,1024v-69.513h11.718V1024H1660.707z"/>
	<path fill="#666666" d="M1716.116,965.014V1024h-11.718v-58.986h-21.946v-10.526h55.71v10.526H1716.116z"/>
	<path fill="#666666" d="M1776.689,1024h-11.619v-22.74l-25.918-46.772h11.817l19.86,33.862l19.464-33.862h11.916l-25.521,46.375
		V1024z"/>
</g>
</svg>
