<?xml version="1.0" encoding="utf-8"?>
<!-- Generator: Adobe Illustrator 16.0.0, SVG Export Plug-In . SVG Version: 6.00 Build 0)  -->
<!DOCTYPE svg PUBLIC "-//W3C//DTD SVG 1.1//EN" "http://www.w3.org/Graphics/SVG/1.1/DTD/svg11.dtd">
<svg version="1.1" id="Layer_1" xmlns="http://www.w3.org/2000/svg" xmlns:xlink="http://www.w3.org/1999/xlink" x="0px" y="0px"
	 width="2176px" height="1024px" viewBox="0 0 2176 1024" enable-background="new 0 0 2176 1024" xml:space="preserve">
<g>
	<g>
		<path fill="#666666" d="M1028.092,500.32V309.995c-9.476-5.376-20.741-12.151-32.869-19.696H766.968V500.32h43.568H1028.092z"/>
		<rect x="810.536" y="506.59" fill="#666666" width="217.556" height="305.762"/>
		<path fill="#666666" d="M1213.418,290.299c-11.444,7.229-22.242,13.842-31.332,19.133V500.32h183.378h7.112h36.456V290.299
			H1213.418z"/>
		<rect x="1182.086" y="506.59" fill="#666666" width="183.378" height="305.762"/>
	</g>
	<g>
		<rect x="1058.092" y="311" fill="#666666" width="93.994" height="497.076"/>
		<path fill="#666666" d="M1204.607,138.101c-7.639,5.649-52.417,98.572-61.701,139.312c-7.536-8.883-22.231-14.912-39.126-14.912
			c-14.906,0-28.091,4.699-36.167,11.905c-10.927-49.532-66.53-164.997-75.968-171.977C970.781,87,862.464,156.097,885.806,178.923
			c15.1,14.766,129.977,91.69,169.235,111.577h99.424c33.29-17.312,124.226-78.26,136.336-90.104
			C1309.812,181.808,1221.6,125.536,1204.607,138.101z"/>
	</g>
</g>
<g>
	<path fill="#666666" d="M666.429,964.914l-6.852,8.54c-5.065-5.462-12.314-8.838-19.365-8.838
		c-13.902,0-24.826,10.725-24.826,24.429s10.923,24.528,24.826,24.528c6.952,0,14.102-3.178,19.365-8.242l6.951,7.745
		c-7.051,6.951-17.081,11.42-26.912,11.42c-20.357,0-36.146-15.392-36.146-35.352c0-19.762,15.988-34.955,36.544-34.955
		C649.845,954.189,659.676,958.261,666.429,964.914z"/>
	<path fill="#666666" d="M737.527,995.202c0,18.172-11.42,29.294-30.188,29.294c-18.769,0-30.288-11.122-30.288-29.294v-40.715
		h11.718v40.715c0,11.718,7.249,18.769,18.669,18.769c11.321,0,18.371-6.952,18.371-18.769v-40.715h11.718V995.202z"/>
	<path fill="#666666" d="M801.475,961.141l-4.866,10.327c-7.547-4.567-15.094-6.454-20.357-6.454c-6.852,0-11.32,2.582-11.32,7.249
		c0,15.193,37.537,7.051,37.438,32.075c0,12.413-10.923,20.06-26.216,20.06c-10.923,0-21.251-4.469-28.401-11.023l5.064-10.129
		c7.15,6.555,16.087,10.129,23.535,10.129c8.143,0,13.009-3.078,13.009-8.44c0-15.491-37.537-6.852-37.537-31.579
		c0-11.916,10.229-19.364,25.323-19.364C786.182,953.99,795.02,956.87,801.475,961.141z"/>
	<path fill="#666666" d="M841.491,965.014V1024h-11.718v-58.986h-21.946v-10.526h55.71v10.526H841.491z"/>
	<path fill="#666666" d="M937.317,989.243c0,19.861-16.087,35.253-36.842,35.253c-20.755,0-36.842-15.392-36.842-35.253
		c0-19.96,16.087-35.054,36.842-35.054C921.23,954.189,937.317,969.383,937.317,989.243z M875.55,989.243
		c0,13.804,11.42,24.728,25.024,24.728c13.605,0,24.727-10.924,24.727-24.728c0-13.803-11.122-24.527-24.727-24.527
		C886.871,964.716,875.55,975.44,875.55,989.243z"/>
	<path fill="#666666" d="M1012.487,1024l-0.099-51.937l-21.946,44.688h-7.646l-21.946-44.688V1024h-11.022v-69.513h13.902
		l22.939,46.176l22.84-46.176h13.803V1024H1012.487z"/>
	<path fill="#666666" d="M1041.677,1024v-69.513h11.718V1024H1041.677z"/>
	<path fill="#666666" d="M1082.091,1013.474h42.8V1024h-58.689v-8.44l42.404-50.546h-41.113v-10.526h56.902v8.44L1082.091,1013.474z
		"/>
	<path fill="#666666" d="M1149.516,965.014v18.769h33.962v10.525h-33.962v19.166h39.126V1024h-50.844v-69.513h49.652v10.526
		H1149.516z"/>
	<path fill="#666666" d="M1231.438,954.487c20.854,0,35.948,14.598,35.948,34.756c0,20.06-15.193,34.757-36.246,34.757h-28.203
		v-69.513H1231.438z M1214.655,1013.474h17.08c13.506,0,23.833-10.029,23.833-24.131c0-14.2-10.626-24.329-24.329-24.329h-16.584
		V1013.474z"/>
	<path fill="#666666" d="M1363.308,989.84v25.62c-7.051,5.362-17.477,9.036-27.01,9.036c-20.557,0-36.545-15.392-36.545-35.253
		c0-19.86,16.188-35.054,37.239-35.054c9.931,0,19.86,3.773,26.713,9.731l-6.653,8.64c-5.362-4.965-12.811-7.944-20.06-7.944
		c-14.2,0-25.322,10.824-25.322,24.627c0,13.903,11.222,24.728,25.422,24.728c5.163,0,11.022-1.788,15.987-4.767V989.84H1363.308z"
		/>
	<path fill="#666666" d="M1379.888,1024v-69.513h11.719V1024H1379.888z"/>
	<path fill="#666666" d="M1421.593,965.014v20.059h31.579V995.5h-31.579v28.5h-11.717v-69.513h46.672l-0.1,10.526H1421.593z"/>
	<path fill="#666666" d="M1492.394,965.014V1024h-11.717v-58.986h-21.947v-10.526h55.711v10.526H1492.394z"/>
	<path fill="#666666" d="M1571.636,961.141l-4.865,10.327c-7.547-4.567-15.094-6.454-20.357-6.454c-6.852,0-11.32,2.582-11.32,7.249
		c0,15.193,37.537,7.051,37.438,32.075c0,12.413-10.924,20.06-26.217,20.06c-10.924,0-21.252-4.469-28.4-11.023l5.064-10.129
		c7.148,6.555,16.086,10.129,23.535,10.129c8.143,0,13.008-3.078,13.008-8.44c0-15.491-37.537-6.852-37.537-31.579
		c0-11.916,10.229-19.364,25.322-19.364C1556.343,953.99,1565.181,956.87,1571.636,961.141z"/>
</g>
</svg>
