<?xml version="1.0" encoding="utf-8"?>
<!-- Generator: Adobe Illustrator 16.0.0, SVG Export Plug-In . SVG Version: 6.00 Build 0)  -->
<!DOCTYPE svg PUBLIC "-//W3C//DTD SVG 1.1//EN" "http://www.w3.org/Graphics/SVG/1.1/DTD/svg11.dtd">
<svg version="1.1" id="Layer_1" xmlns="http://www.w3.org/2000/svg" xmlns:xlink="http://www.w3.org/1999/xlink" x="0px" y="0px"
	 width="2176px" height="1024px" viewBox="-576 0 2176 1024" enable-background="new -576 0 2176 1024" xml:space="preserve">
<g id="Layer_3">
	<g>
		<path fill="#666666" d="M140.918,989.369v25.603c-7.045,5.356-17.464,9.028-26.99,9.028c-20.54,0-36.516-15.38-36.516-35.226
			c0-19.847,16.174-35.027,37.21-35.027c9.923,0,19.846,3.771,26.692,9.725l-6.648,8.634c-5.358-4.962-12.801-7.938-20.044-7.938
			c-14.189,0-25.303,10.815-25.303,24.608c0,13.892,11.212,24.707,25.402,24.707c5.16,0,11.014-1.786,15.976-4.764v-19.351
			L140.918,989.369L140.918,989.369z"/>
		<path fill="#666666" d="M188.849,1002.468c-0.992,0.1-2.083,0.1-3.175,0.1h-16.472v20.938h-11.709v-69.46h28.181
			c17.762,0,27.982,8.634,27.982,23.717c0,11.112-5.16,18.952-14.388,22.523l15.579,23.22H201.55L188.849,1002.468z
			 M185.673,992.049c10.717,0,16.869-4.563,16.869-13.991c0-9.129-6.152-13.495-16.869-13.495h-16.472v27.486H185.673z"/>
		<path fill="#666666" d="M239.062,1007.826l-6.648,15.678h-12.205l30.662-69.46h12.006l30.364,69.46h-12.502l-6.648-15.678H239.062
			z M256.525,966.547l-13.098,30.859h26.196L256.525,966.547z"/>
		<path fill="#666666" d="M330.156,954.044c17.464,0,27.484,8.634,27.484,23.717c0,15.679-10.021,24.808-27.484,24.808H314.18
			v20.938h-11.708v-69.461L330.156,954.044L330.156,954.044z M314.181,992.049h15.479c10.717,0,16.77-4.563,16.77-13.991
			c0-9.129-6.053-13.495-16.77-13.495h-15.479V992.049z"/>
		<path fill="#666666" d="M417.777,1023.504v-28.775h-36.813v28.775h-11.709v-69.46h11.709v30.166h36.813v-30.166h11.709v69.46
			H417.777z"/>
		<path fill="#666666" d="M447.747,1023.504v-69.46h11.709v69.46H447.747z"/>
		<path fill="#666666" d="M534.869,964.463l-6.846,8.534c-5.063-5.458-12.307-8.831-19.352-8.831
			c-13.892,0-24.807,10.717-24.807,24.41c0,13.692,10.915,24.509,24.807,24.509c6.946,0,14.09-3.175,19.352-8.235l6.943,7.739
			c-7.045,6.946-17.064,11.411-26.891,11.411c-20.342,0-36.119-15.38-36.119-35.324c0-19.746,15.976-34.929,36.516-34.929
			C518.299,953.747,528.123,957.815,534.869,964.463z"/>
		<path fill="#666666" d="M600.959,954.044c20.838,0,35.922,14.587,35.922,34.73c0,20.044-15.184,34.729-36.219,34.729H572.48
			v-69.46L600.959,954.044L600.959,954.044z M584.189,1012.985h17.066c13.494,0,23.814-10.021,23.814-24.112
			c0-14.188-10.617-24.311-24.313-24.311h-16.57L584.189,1012.985L584.189,1012.985z"/>
		<path fill="#666666" d="M661.096,964.563v18.755h33.938v10.519h-33.938v19.15h39.098v10.519h-50.807v-69.46H699v10.521
			L661.096,964.563L661.096,964.563z"/>
		<path fill="#666666" d="M761.617,960.692l-4.863,10.319c-7.541-4.563-15.082-6.449-20.342-6.449
			c-6.846,0-11.313,2.579-11.313,7.243c0,15.183,37.512,7.045,37.41,32.051c0,12.403-10.916,20.044-26.195,20.044
			c-10.914,0-21.234-4.466-28.381-11.015l5.063-10.121c7.145,6.55,16.076,10.121,23.518,10.121c8.139,0,12.998-3.075,12.998-8.436
			c0-15.479-37.508-6.847-37.508-31.555c0-11.907,10.221-19.351,25.303-19.351C746.336,953.547,755.166,956.426,761.617,960.692z"/>
		<path fill="#666666" d="M776.205,1023.504v-69.46h11.709v69.46H776.205z"/>
		<path fill="#666666" d="M863.924,989.369v25.603c-7.045,5.356-17.465,9.028-26.99,9.028c-20.539,0-36.516-15.38-36.516-35.226
			c0-19.847,16.174-35.027,37.211-35.027c9.922,0,19.846,3.771,26.691,9.725l-6.648,8.634c-5.357-4.962-12.799-7.938-20.043-7.938
			c-14.189,0-25.303,10.815-25.303,24.608c0,13.892,11.213,24.707,25.402,24.707c5.158,0,11.014-1.786,15.975-4.764v-19.351
			L863.924,989.369L863.924,989.369z"/>
		<path fill="#666666" d="M929.219,1023.504l-37.012-49.813v49.813h-11.709v-69.46h11.512l37.209,49.912v-49.912h11.512v69.46
			H929.219z"/>
	</g>
</g>
<g id="Layer_4">
	<g>
		<path fill="#666666" d="M751.289,431.463c-16.986,17.053-36.46,36.18-56.76,56.114c-17.229,16.92-35.497,34.864-53.46,52.747
			c18.452,6.829,31.606,24.581,31.606,45.408c0,26.732-21.672,48.404-48.404,48.404c-20.478,0-37.971-12.72-45.045-30.684
			c-12.83,13.604-22.847,24.736-30.659,33.807c8.166,8.666,13.18,20.334,13.18,33.183c0,26.732-21.672,48.404-48.405,48.404
			c-6.54,0-12.771-1.304-18.461-3.652c-2.17,2.304-4.585,4.591-7.262,6.854c-11.645,9.853-22.959,14.849-33.63,14.849
			c-0.002,0-0.004,0-0.007,0c-0.831-0.001-1.669-0.03-2.491-0.091c-8.187-0.584-16.39-2.71-24.313-5.771
			c-0.512,7.314-1.812,14.688-3.953,22.021c-2.944,10.083-6.933,19.443-11.932,28.084c15.165,4.206,30.864,7.059,47.136,8.443
			c1.372,0.116,2.705,0.679,4.056,1.032c10.753,0,21.506,0,32.26,0c7.214-1.022,14.439-1.966,21.64-3.08
			c38.13-5.892,72.954-20.244,104.73-41.873c63.778-43.411,106.104-102.509,126.588-176.789c4.817-17.468,6.378-35.83,9.45-53.78
			c0.296-1.723,0.697-3.429,1.051-5.142c0-11.47,0-22.94,0-34.411c-1.452-10.583-2.475-21.248-4.438-31.736
			C752.991,439.674,752.168,435.559,751.289,431.463z"/>
		<path fill="#666666" d="M205.292,589.17c10.556,24.055,23.043,46.622,37.675,67.525c17.289-20.594,41.639-33.705,68.884-36.299
			c2.53-5.64,6.104-10.704,10.483-14.95c0.012-0.442,0.021-0.884,0.042-1.326c0.187-3.889,0.755-15.705,16.744-33.687
			c7.389-8.31,14.433-13.924,21.5-17.051c6.528-10.107,17.925-16.09,30.837-16.09c0.29,0,0.583,0.003,0.88,0.009
			c0.26-0.011,8.239-0.424,29.653-15.299c15.562-10.811,34.734-26.896,56.99-47.809c2.316-2.178,4.646-4.39,6.982-6.624
			c-20.714-9.309-35.146-30.104-35.146-54.284c0-32.86,26.639-59.499,59.498-59.499c23.714,0,44.182,13.875,53.741,33.946
			c15.115-16.155,29.955-32.275,44.137-47.679c7.342-7.976,14.452-15.699,21.282-23.081c-15.711-1.405-31.541-1.341-47.417-0.812
			c-23.604,0.788-47.23,1.351-70.845,1.25c-9.766-0.041-19.654-1.407-29.258-3.321c-29.879-5.954-46.98-24.758-52.85-54.29
			c-4.057-20.41-2.762-40.937-1.72-61.513c1.03-20.334,1.857-40.709,1.71-61.06c-0.088-12.223-5.665-22-18.23-26.23
			c-4.303,0-8.604,0-12.905,0c-11.369,3.017-22.978,5.339-34.067,9.167c-67.115,23.166-115.342,68.398-149.311,129.686
			c-21.945,39.595-34.777,82.242-40.263,127.128c-1.167,9.545-2.175,19.108-3.257,28.663c0,12.545,0,25.092,0,37.638
			c1.014,9.917,1.935,19.845,3.058,29.75C178.688,513.303,188.993,552.03,205.292,589.17z M279.475,285.966
			c26.734,0,48.406,21.672,48.406,48.406c0,26.733-21.672,48.405-48.406,48.405s-48.406-21.672-48.406-48.405
			C231.069,307.638,252.741,285.966,279.475,285.966z M271.313,448.583c26.734,0,48.406,21.672,48.406,48.405
			s-21.672,48.405-48.406,48.405s-48.406-21.672-48.406-48.405C222.908,470.255,244.58,448.583,271.313,448.583z"/>
	</g>
	<path fill="#666666" d="M922.566,169.013c-5.603,10.612-81.824,127.095-174.394,222.497
		c-78.298,80.692-248.007,236.484-256.519,275.945c-7.853,36.368-136.473-100.625-99.912-99.904
		c55.188,1.086,196.018-162.091,276.588-247.909c66.438-70.77,164.97-133.468,217.796-177.093
		C901.89,129.53,932.047,151.045,922.566,169.013z M453.66,706.632c7.878,0.566,30.328-20.054,23.344-23.341
		c-35.324-16.65-97.247-63.01-101.062-101.063c-0.787-7.842-22.964,15.387-23.347,23.341
		C350.817,642.706,416.904,704.009,453.66,706.632z M167.913,824.124c26.406,2.83,52.869,3.673,79.385,2.08
		c29.827-1.785,59.133-6.206,86.913-17.938c29.366-12.398,50.866-32.507,59.973-63.688c10.7-36.651-8.527-77.305-47.673-90.347
		c-40.493-13.488-81.063,7.536-94.828,47.73c-0.971,2.835-2.441,5.541-3.982,8.128c-11.179,18.75-27.209,32.081-46.674,41.541
		c-1.371,0.667-2.663,1.497-3.991,2.253c0.116,0.697,0.232,1.396,0.349,2.096c9.527,0.102,19.054,0.206,28.872,0.313
		c-11.015,21.774-30.552,27.878-53.545,27.804c18.374,4.051,36.604,6.74,56.122,2.021c-15.393,25.446-37.611,36.282-65.662,37.237
		C164.752,823.618,166.323,823.953,167.913,824.124z"/>
</g>
</svg>
