<?xml version="1.0" encoding="utf-8"?>
<!-- Generator: Adobe Illustrator 16.0.0, SVG Export Plug-In . SVG Version: 6.00 Build 0)  -->
<!DOCTYPE svg PUBLIC "-//W3C//DTD SVG 1.1//EN" "http://www.w3.org/Graphics/SVG/1.1/DTD/svg11.dtd">
<svg version="1.1" id="Layer_3" xmlns="http://www.w3.org/2000/svg" xmlns:xlink="http://www.w3.org/1999/xlink" x="0px" y="0px"
	 width="2176px" height="1024px" viewBox="-576 0 2176 1024" enable-background="new -576 0 2176 1024" xml:space="preserve">
<g>
	
		<line opacity="0.4" fill="none" stroke="#666666" stroke-width="10" stroke-miterlimit="10" enable-background="new    " x1="73" y1="732" x2="951" y2="732"/>
	
		<line opacity="0.4" fill="none" stroke="#666666" stroke-width="10" stroke-miterlimit="10" enable-background="new    " x1="184.335" y1="843.332" x2="483.714" y2="20.798"/>
	
		<line opacity="0.4" fill="none" stroke="#666666" stroke-width="10" stroke-miterlimit="10" enable-background="new    " x1="333.105" y1="813.303" x2="532.776" y2="199.301"/>
	
		<line opacity="0.4" fill="none" stroke="#666666" stroke-width="10" stroke-miterlimit="10" enable-background="new    " x1="142" y1="608" x2="886" y2="608"/>
	
		<line opacity="0.4" fill="none" stroke="#666666" stroke-width="10" stroke-miterlimit="10" enable-background="new    " x1="177" y1="510" x2="847" y2="510"/>
	
		<line opacity="0.4" fill="none" stroke="#666666" stroke-width="10" stroke-miterlimit="10" enable-background="new    " x1="347" y1="131" x2="676" y2="131"/>
	<path fill="#666666" d="M694.282,507.201l-104.006-2.355l-2.823-101.004l71.643-70.482L586.288,127H440.223L224.084,733h133.398
		l42.214-126h223.735l38.842,126h137.618l-86.266-244.981L694.282,507.201z M433.47,504l77.675-239h1.688l75.142,239H433.47z"/>
	<g>
		<polygon fill="#666666" points="881.675,298.248 913.248,266.674 831.266,184.695 799.496,216.069 		"/>
		<polygon fill="#666666" points="786.127,229.058 602.967,409.927 605.201,489.968 688.081,491.844 868.496,311.427 		"/>
	</g>
</g>
<g>
	<path fill="#666666" d="M214.004,1011.878v10.626h-41.808v-69.513h11.718v58.887H214.004z"/>
	<path fill="#666666" d="M293.147,987.747c0,19.861-16.088,35.253-36.843,35.253c-20.754,0-36.842-15.392-36.842-35.253
		c0-19.96,16.088-35.054,36.842-35.054C277.059,952.693,293.147,967.887,293.147,987.747z M231.379,987.747
		c0,13.804,11.42,24.728,25.024,24.728s24.727-10.924,24.727-24.728c0-13.803-11.122-24.527-24.727-24.527
		C242.7,963.22,231.379,973.944,231.379,987.747z"/>
	<path fill="#666666" d="M360.67,988.343v25.621c-7.05,5.362-17.478,9.036-27.011,9.036c-20.556,0-36.544-15.392-36.544-35.253
		c0-19.86,16.187-35.054,37.238-35.054c9.932,0,19.861,3.772,26.714,9.73l-6.653,8.641c-5.362-4.967-12.811-7.944-20.061-7.944
		c-14.199,0-25.321,10.824-25.321,24.627c0,13.903,11.222,24.728,25.422,24.728c5.164,0,11.021-1.787,15.988-4.767v-19.365H360.67
		L360.67,988.343z"/>
	<path fill="#666666" d="M445.174,987.747c0,19.861-16.087,35.253-36.842,35.253c-20.754,0-36.842-15.392-36.842-35.253
		c0-19.96,16.088-35.054,36.842-35.054C429.087,952.693,445.174,967.887,445.174,987.747z M383.408,987.747
		c0,13.804,11.42,24.728,25.023,24.728c13.604,0,24.728-10.924,24.728-24.728c0-13.803-11.122-24.527-24.728-24.527
		C394.729,963.22,383.408,973.944,383.408,987.747z"/>
	<path fill="#666666" d="M511.802,952.991c20.854,0,35.948,14.598,35.948,34.756c0,20.06-15.193,34.757-36.246,34.757h-28.203
		v-69.513H511.802z M495.02,1011.979h17.08c13.506,0,23.833-10.029,23.833-24.132c0-14.199-10.627-24.329-24.331-24.329h-16.584
		v48.461H495.02z"/>
	<path fill="#666666" d="M571.977,963.518v18.77h33.961v10.525h-33.961v19.166h39.125v10.525h-50.844v-69.513h49.652v10.525
		L571.977,963.518L571.977,963.518z"/>
	<path fill="#666666" d="M672.568,959.645l-4.865,10.327c-7.547-4.566-15.094-6.454-20.357-6.454c-6.852,0-11.319,2.581-11.319,7.25
		c0,15.192,37.536,7.051,37.438,32.074c0,12.413-10.924,20.061-26.217,20.061c-10.924,0-21.252-4.469-28.4-11.023l5.064-10.129
		c7.147,6.555,16.086,10.129,23.535,10.129c8.143,0,13.008-3.078,13.008-8.439c0-15.491-37.537-6.853-37.537-31.579
		c0-11.916,10.229-19.364,25.322-19.364C657.275,952.494,666.113,955.374,672.568,959.645z"/>
	<path fill="#666666" d="M687.162,1022.504v-69.513h11.719v69.513H687.162z"/>
	<path fill="#666666" d="M774.945,988.343v25.621c-7.052,5.362-17.479,9.036-27.013,9.036c-20.555,0-36.543-15.392-36.543-35.253
		c0-19.86,16.187-35.054,37.238-35.054c9.932,0,19.861,3.772,26.713,9.73l-6.651,8.641c-5.363-4.967-12.812-7.944-20.062-7.944
		c-14.199,0-25.322,10.824-25.322,24.627c0,13.903,11.224,24.728,25.423,24.728c5.163,0,11.022-1.787,15.987-4.767v-19.365H774.945
		L774.945,988.343z"/>
	<path fill="#666666" d="M840.283,1022.504l-37.041-49.851v49.851h-11.717v-69.513h11.52l37.238,49.95v-49.95h11.52v69.513H840.283z
		"/>
</g>
</svg>
