<?xml version="1.0" encoding="utf-8"?>
<!-- Generator: Adobe Illustrator 16.0.0, SVG Export Plug-In . SVG Version: 6.00 Build 0)  -->
<!DOCTYPE svg PUBLIC "-//W3C//DTD SVG 1.1//EN" "http://www.w3.org/Graphics/SVG/1.1/DTD/svg11.dtd">
<svg version="1.1" id="Layer_1" xmlns="http://www.w3.org/2000/svg" xmlns:xlink="http://www.w3.org/1999/xlink" x="0px" y="0px"
	 width="2176px" height="1024px" viewBox="-576 0 2176 1024" enable-background="new -576 0 2176 1024" xml:space="preserve">
<g id="Layer_3">
	<g>
		<path fill="#666666" d="M309.514,994.706c0,18.172-11.42,29.294-30.188,29.294c-18.769,0-30.288-11.122-30.288-29.294v-40.715
			h11.718v40.715c0,11.718,7.249,18.769,18.669,18.769c11.321,0,18.371-6.951,18.371-18.769v-40.715h11.718V994.706z"/>
		<path fill="#666666" d="M326.292,1023.504v-69.513h11.718v69.513H326.292z"/>
		<path fill="#666666" d="M410.399,953.991c20.854,0,35.947,14.598,35.947,34.756c0,20.06-15.193,34.757-36.246,34.757h-28.202
			v-69.513H410.399z M393.617,1012.979h17.08c13.505,0,23.833-10.029,23.833-24.132c0-14.199-10.625-24.329-24.33-24.329h-16.583
			V1012.979z"/>
		<path fill="#666666" d="M470.574,964.518v18.77h33.962v10.525h-33.962v19.166h39.125v10.525h-50.844v-69.513h49.651v10.525
			L470.574,964.518L470.574,964.518z"/>
		<path fill="#666666" d="M571.165,960.645l-4.866,10.327c-7.547-4.566-15.094-6.454-20.356-6.454c-6.853,0-11.32,2.581-11.32,7.25
			c0,15.192,37.537,7.051,37.438,32.074c0,12.413-10.924,20.061-26.217,20.061c-10.923,0-21.25-4.469-28.399-11.023l5.063-10.129
			c7.15,6.555,16.088,10.129,23.535,10.129c8.143,0,13.009-3.078,13.009-8.439c0-15.491-37.537-6.853-37.537-31.579
			c0-11.916,10.229-19.364,25.323-19.364C555.872,953.494,564.71,956.374,571.165,960.645z"/>
		<path fill="#666666" d="M585.76,1023.504v-69.513h11.719v69.513H585.76z"/>
		<path fill="#666666" d="M673.541,989.343v25.621c-7.05,5.362-17.479,9.036-27.011,9.036c-20.557,0-36.544-15.392-36.544-35.253
			c0-19.86,16.187-35.054,37.238-35.054c9.932,0,19.861,3.772,26.714,9.73l-6.653,8.641c-5.362-4.967-12.812-7.944-20.061-7.944
			c-14.199,0-25.321,10.824-25.321,24.627c0,13.903,11.222,24.728,25.422,24.728c5.164,0,11.021-1.787,15.987-4.767v-19.365H673.541
			L673.541,989.343z"/>
		<path fill="#666666" d="M738.88,1023.504l-37.041-49.851v49.851h-11.718v-69.513h11.52l37.239,49.95v-49.95H750.4v69.513H738.88z"
			/>
	</g>
</g>
<g id="Layer_4">
	<path fill="#666666" d="M410.059,706.01c3.083-6.732,5.104-14.271,9.476-20.024c8.569-11.279,20.436-15.862,34.865-13.188
		c20.073,3.722,39.294,9.937,57.73,18.652c1.452,0.687,2.937,1.307,4.972,2.21c0-2.662-0.001-4.638,0-6.612
		c0-66.471-0.023-132.94,0.021-199.413c0.012-16.856,12.343-30.729,29.342-33.313c15.906-2.416,32.159,7.714,36.855,23.353
		c1.174,3.91,1.551,8.175,1.602,12.285c0.186,14.777,0.073,29.559,0.073,44.521c18.639-8.632,36.177-3.982,47.38,15.917
		c9.1-5.716,18.834-7.976,29.4-4.662c10.541,3.305,17.612,10.335,21.442,19.601c7.222-1.484,14.045-3.946,20.917-4.091
		c17.627-0.371,32.704,14.632,32.759,32.249c0.156,51.478,0.535,102.961-0.107,154.431c-0.636,50.816-40.225,95.674-90.524,104.078
		c-3.75,0.626-7.487,1.323-11.23,1.987c-5.666,0-11.332,0-16.998,0c-1.617-0.332-3.221-0.784-4.854-0.979
		c-32.609-3.899-58.974-18.369-78.153-45.482c-23.337-32.99-54.644-53.92-94.546-61.649c-15.555-3.013-25.431-12.28-29.416-27.705
		c-0.195-0.757-0.664-1.443-1.006-2.165C410.059,712.675,410.059,709.343,410.059,706.01z M909.698,107.498H133.365
		c-19.514,0-35.333,15.819-35.333,35.333v494.667c0,19.515,15.819,35.333,35.333,35.333h257.131
		c1.818-3.872,4.085-7.965,7.146-11.994c12.632-16.624,30.739-25.78,50.987-25.78c4.322,0,8.774,0.419,13.232,1.246
		c9.19,1.704,18.282,3.894,27.232,6.553l-0.001-14.171c-0.005-49.354-0.01-98.712,0.024-148.068
		c0.021-31.652,23.084-58.127,54.836-62.951c3.04-0.462,6.146-0.696,9.229-0.696c11.585,0,22.675,3.213,32.257,8.864
		c-10.326-21.322-16.119-45.249-16.119-70.529c0-89.479,72.537-162.017,162.016-162.017c89.48,0,162.018,72.537,162.018,162.017
		c0,89.48-72.537,162.018-162.018,162.018c-45.323,0-86.292-18.619-115.696-48.616c0.789,4.28,1.213,8.87,1.275,13.886
		c0.05,4.027,0.079,8.069,0.094,12.104c9.787,2.113,18.858,6.668,26.748,13.365c9.593-1.618,19.46-0.935,28.988,2.053
		c9.701,3.042,18.237,8.072,25.23,14.749c2.394-0.326,4.905-0.552,7.523-0.605c16.889-0.363,32.96,6.233,45.092,18.438
		c11.749,11.815,18.247,27.341,18.298,43.712c0.027,9.197,0.063,18.396,0.099,27.593c0.073,19.37,0.146,39.053,0.151,58.834h140.559
		c19.514,0,35.334-15.818,35.334-35.333V142.832C945.032,123.317,929.212,107.498,909.698,107.498z M453.573,504.115H163.84
		c-11.709,0-21.2-9.492-21.2-21.2c0-11.709,9.491-21.2,21.2-21.2h289.733c11.709,0,21.2,9.491,21.2,21.2
		C474.771,494.623,465.282,504.115,453.573,504.115z M453.573,417.843H163.84c-11.709,0-21.2-9.492-21.2-21.2
		c0-11.708,9.491-21.2,21.2-21.2h289.733c11.709,0,21.2,9.492,21.2,21.2C474.773,408.351,465.282,417.843,453.573,417.843z
		 M453.573,331.57H163.84c-11.709,0-21.2-9.492-21.2-21.2s9.491-21.2,21.2-21.2h289.733c11.709,0,21.2,9.492,21.2,21.2
		S465.282,331.57,453.573,331.57z M453.573,245.298H163.84c-11.709,0-21.2-9.491-21.2-21.2s9.491-21.2,21.2-21.2h289.733
		c11.709,0,21.2,9.492,21.2,21.2S465.282,245.298,453.573,245.298z"/>
</g>
</svg>
