<?xml version="1.0" encoding="utf-8"?>
<!-- Generator: Adobe Illustrator 16.0.0, SVG Export Plug-In . SVG Version: 6.00 Build 0)  -->
<!DOCTYPE svg PUBLIC "-//W3C//DTD SVG 1.1//EN" "http://www.w3.org/Graphics/SVG/1.1/DTD/svg11.dtd">
<svg version="1.1" id="Layer_3" xmlns="http://www.w3.org/2000/svg" xmlns:xlink="http://www.w3.org/1999/xlink" x="0px" y="0px"
	 width="2176px" height="1024px" viewBox="0 0 2176 1024" enable-background="new 0 0 2176 1024" xml:space="preserve">
<g>
	<path fill="#666666" d="M1497.001,116h-818C667.955,116,659,124.958,659,136.004v530C659,677.05,667.955,686,679.001,686h51.352
		c16.664-33.13,49.16-53.859,86.178-53.859c3.406,0,6.815,0.184,10.217,0.536c-0.907-2.858-1.645-5.76-2.193-8.677H717V176h589.326
		c20.616-15.226,39.918-29.566,54.772-41.838c7.396-6.106,16.529-9.333,26.416-9.333c17.153,0,34.751,10.069,43.787,25.055
		c5.011,8.304,6.98,17.354,5.916,26.115H1459v448h-409.672c-35.789,39.612-40.8,51.584-41.481,53.877
		c-0.642,2.924-1.621,5.639-2.882,8.123H1012v52h-97.756c-0.58,5.936-1.706,11.904-3.438,17.838c-0.016,0.055-0.03,0.107-0.05,0.162
		H1284v-18h-120v-52h333.001c11.046,0,19.999-8.95,19.999-19.996v-530C1517,124.958,1508.047,116,1497.001,116z"/>
	<path fill="#666666" d="M1412.203,178.527c-5.555,10.523-81.139,126.03-172.932,220.632
		c-77.643,80.016-245.93,234.503-254.369,273.633c-7.786,36.063-135.328-99.781-99.075-99.067
		c54.727,1.077,194.376-160.731,274.271-245.832c65.883-70.176,163.588-132.349,215.972-175.609
		C1391.699,139.375,1421.604,160.71,1412.203,178.527z M947.226,711.641c7.813,0.563,30.073-19.886,23.148-23.146
		c-35.028-16.511-96.432-62.481-100.215-100.217c-0.78-7.774-22.771,15.258-23.15,23.146
		C845.245,648.25,910.778,709.039,947.226,711.641z M663.873,828.148c26.184,2.806,52.426,3.642,78.72,2.063
		c29.577-1.771,58.637-6.154,86.185-17.787c29.12-12.296,50.44-32.233,59.47-63.154c10.61-36.344-8.456-76.655-47.273-89.589
		c-40.153-13.376-80.383,7.475-94.033,47.331c-0.963,2.813-2.421,5.494-3.949,8.061c-11.085,18.593-26.981,31.813-46.283,41.192
		c-1.359,0.661-2.64,1.484-3.957,2.233c0.115,0.691,0.23,1.384,0.346,2.077c9.447,0.102,18.894,0.205,28.63,0.311
		c-10.923,21.592-30.296,27.646-53.096,27.57c18.22,4.016,36.297,6.684,55.651,2.005c-15.264,25.232-37.295,35.979-65.111,36.925
		C660.739,827.646,662.297,827.979,663.873,828.148z"/>
</g>
<g>
	<path fill="#666666" d="M404.975,1022.847l-16.484-54.22l-16.683,54.22h-12.115l-23.039-69.513h12.612l16.881,56.504l16.783-56.405
		l11.519-0.099l16.882,56.504l16.782-56.504h12.115l-23.237,69.513H404.975z"/>
	<path fill="#666666" d="M460.084,963.86v18.769h33.962v10.525h-33.962v19.166h39.126v10.526h-50.844v-69.513h49.652v10.526H460.084
		z"/>
	<path fill="#666666" d="M543.695,953.334c14.399,0,23.336,6.554,23.336,17.378c0,7.845-4.667,13.704-12.214,15.491
		c9.334,1.589,14.896,8.242,14.896,17.577c0,11.916-9.633,19.066-25.323,19.066h-30.883v-69.513H543.695z M525.224,982.132h17.875
		c7.448,0,11.917-3.476,11.917-9.334c0-5.859-4.469-9.037-11.917-9.037h-17.875V982.132z M525.224,1012.42h17.875
		c9.136,0,14.598-3.575,14.598-10.129c0-6.157-5.461-9.831-14.598-9.831h-17.875V1012.42z"/>
	<path fill="#666666" d="M637.73,953.334c20.854,0,35.948,14.598,35.948,34.756c0,20.06-15.194,34.757-36.246,34.757H609.23v-69.513
		H637.73z M620.948,1012.32h17.08c13.505,0,23.833-10.029,23.833-24.131c0-14.2-10.625-24.329-24.33-24.329h-16.583V1012.32z"/>
	<path fill="#666666" d="M697.905,963.86v18.769h33.962v10.525h-33.962v19.166h39.125v10.526h-50.844v-69.513h49.652v10.526H697.905
		z"/>
	<path fill="#666666" d="M798.497,959.987l-4.866,10.327c-7.547-4.567-15.094-6.454-20.357-6.454c-6.852,0-11.32,2.582-11.32,7.249
		c0,15.193,37.537,7.051,37.438,32.075c0,12.413-10.923,20.06-26.216,20.06c-10.923,0-21.251-4.469-28.401-11.023l5.064-10.129
		c7.15,6.555,16.087,10.129,23.535,10.129c8.143,0,13.009-3.078,13.009-8.44c0-15.491-37.537-6.852-37.537-31.579
		c0-11.916,10.229-19.364,25.323-19.364C783.204,952.837,792.042,955.717,798.497,959.987z"/>
	<path fill="#666666" d="M813.091,1022.847v-69.513h11.718v69.513H813.091z"/>
	<path fill="#666666" d="M900.874,988.687v25.62c-7.051,5.362-17.478,9.036-27.011,9.036c-20.556,0-36.544-15.392-36.544-35.253
		c0-19.86,16.187-35.054,37.239-35.054c9.931,0,19.861,3.773,26.713,9.731l-6.653,8.64c-5.362-4.965-12.81-7.944-20.06-7.944
		c-14.2,0-25.322,10.824-25.322,24.627c0,13.903,11.221,24.728,25.422,24.728c5.164,0,11.022-1.788,15.988-4.767v-19.364H900.874z"
		/>
	<path fill="#666666" d="M966.212,1022.847l-37.041-49.851v49.851h-11.718v-69.513h11.519l37.239,49.95v-49.95h11.519v69.513
		H966.212z"/>
	<path fill="#666666" d="M1010.496,1034.465l31.479-92.65h9.732l-31.479,92.65H1010.496z"/>
	<path fill="#666666" d="M1108.704,953.334c20.854,0,35.948,14.598,35.948,34.756c0,20.06-15.193,34.757-36.246,34.757h-28.203
		v-69.513H1108.704z M1091.922,1012.32h17.08c13.506,0,23.833-10.029,23.833-24.131c0-14.2-10.626-24.329-24.329-24.329h-16.584
		V1012.32z"/>
	<path fill="#666666" d="M1168.879,963.86v18.769h33.963v10.525h-33.963v19.166h39.125v10.526h-50.844v-69.513h49.652v10.526
		H1168.879z"/>
	<path fill="#666666" d="M1241.168,1022.847l-27.705-69.513h12.611l21.449,56.504l21.648-56.504h12.215l-28.104,69.513H1241.168z"/>
	<path fill="#666666" d="M1302.533,963.86v18.769h33.963v10.525h-33.963v19.166h39.127v10.526h-50.844v-69.513h49.652v10.526
		H1302.533z"/>
	<path fill="#666666" d="M1397.764,1012.221v10.626h-41.809v-69.513h11.719v58.887H1397.764z"/>
	<path fill="#666666" d="M1476.906,988.09c0,19.861-16.088,35.253-36.842,35.253s-36.842-15.392-36.842-35.253
		c0-19.96,16.088-35.054,36.842-35.054S1476.906,968.229,1476.906,988.09z M1415.139,988.09c0,13.804,11.42,24.728,25.025,24.728
		c13.604,0,24.727-10.924,24.727-24.728c0-13.803-11.123-24.527-24.727-24.527C1426.459,963.563,1415.139,974.287,1415.139,988.09z"
		/>
	<path fill="#666666" d="M1517.121,953.334c17.477,0,27.508,8.64,27.508,23.733c0,15.69-10.031,24.826-27.508,24.826h-15.988v20.953
		h-11.719v-69.513H1517.121z M1501.133,991.367h15.492c10.725,0,16.781-4.568,16.781-14.002c0-9.136-6.057-13.505-16.781-13.505
		h-15.492V991.367z"/>
	<path fill="#666666" d="M1618.904,1022.847l-0.1-51.937l-21.947,44.688h-7.645l-21.947-44.688v51.937h-11.023v-69.513h13.904
		l22.938,46.176l22.84-46.176h13.805v69.513H1618.904z"/>
	<path fill="#666666" d="M1659.811,963.86v18.769h33.963v10.525h-33.963v19.166h39.127v10.526h-50.844v-69.513h49.652v10.526
		H1659.811z"/>
	<path fill="#666666" d="M1761.992,1022.847l-37.041-49.851v49.851h-11.717v-69.513h11.52l37.238,49.95v-49.95h11.52v69.513
		H1761.992z"/>
	<path fill="#666666" d="M1817.301,963.86v58.986h-11.719V963.86h-21.945v-10.526h55.709v10.526H1817.301z"/>
</g>
</svg>
